solid 2022_05_29_Scrabble v3.020
facet normal 0.000000 0.000000 -1.000000
outer loop
vertex 283.044189 163.538635 0.000000
vertex 284.148682 163.219330 0.000000
vertex 282.726807 163.556976 0.000000
endloop
endfacet
facet normal 0.000000 0.000000 -1.000000
outer loop
vertex 282.726807 163.556976 0.000000
vertex 284.148682 163.219330 0.000000
vertex 284.332031 163.122742 0.000000
endloop
endfacet
facet normal 0.000000 0.000000 -1.000000
outer loop
vertex 282.726807 163.556976 0.000000
vertex 284.332031 163.122742 0.000000
vertex 284.507568 163.014450 0.000000
endloop
endfacet
facet normal 0.000000 0.000000 -1.000000
outer loop
vertex 283.356842 163.496826 0.000000
vertex 283.661530 163.415466 0.000000
vertex 283.044189 163.538635 0.000000
endloop
endfacet
facet normal 0.000000 0.000000 -1.000000
outer loop
vertex 283.044189 163.538635 0.000000
vertex 283.661530 163.415466 0.000000
vertex 284.148682 163.219330 0.000000
endloop
endfacet
facet normal 0.000000 0.000000 -1.000000
outer loop
vertex 283.661530 163.415466 0.000000
vertex 283.961395 163.310059 0.000000
vertex 284.148682 163.219330 0.000000
endloop
endfacet
facet normal 0.000000 0.000000 -1.000000
outer loop
vertex 284.507568 163.014450 0.000000
vertex 284.672943 162.891006 0.000000
vertex 282.726807 163.556976 0.000000
endloop
endfacet
facet normal 0.000000 0.000000 -1.000000
outer loop
vertex 282.726807 163.556976 0.000000
vertex 284.672943 162.891006 0.000000
vertex 285.275269 162.274231 0.000000
endloop
endfacet
facet normal 0.000000 0.000000 -1.000000
outer loop
vertex 282.726807 163.556976 0.000000
vertex 285.275269 162.274231 0.000000
vertex 285.576569 161.753967 0.000000
endloop
endfacet
facet normal 0.000000 0.000000 -1.000000
outer loop
vertex 285.576569 161.753967 0.000000
vertex 285.275269 162.274231 0.000000
vertex 285.442871 162.034348 0.000000
endloop
endfacet
facet normal 0.000000 0.000000 -1.000000
outer loop
vertex 284.897614 162.710114 0.000000
vertex 285.097046 162.503143 0.000000
vertex 284.672943 162.891006 0.000000
endloop
endfacet
facet normal 0.000000 0.000000 -1.000000
outer loop
vertex 284.672943 162.891006 0.000000
vertex 285.097046 162.503143 0.000000
vertex 285.275269 162.274231 0.000000
endloop
endfacet
facet normal 0.000000 0.000000 -1.000000
outer loop
vertex 285.576569 161.753967 0.000000
vertex 285.693451 161.469208 0.000000
vertex 282.726807 163.556976 0.000000
endloop
endfacet
facet normal 0.000000 0.000000 -1.000000
outer loop
vertex 282.726807 163.556976 0.000000
vertex 285.693451 161.469208 0.000000
vertex 285.777008 161.175766 0.000000
endloop
endfacet
facet normal 0.000000 0.000000 -1.000000
outer loop
vertex 282.726807 163.556976 0.000000
vertex 285.777008 161.175766 0.000000
vertex 285.823456 160.872650 0.000000
endloop
endfacet
facet normal 0.000000 0.000000 -1.000000
outer loop
vertex 285.823456 160.872650 0.000000
vertex 285.854401 160.429413 0.000000
vertex 282.726807 163.556976 0.000000
endloop
endfacet
facet normal 0.000000 0.000000 -1.000000
outer loop
vertex 282.726807 163.556976 0.000000
vertex 285.854401 160.429413 0.000000
vertex 258.117737 151.458221 0.000000
endloop
endfacet
facet normal 0.000000 0.000000 -1.000000
outer loop
vertex 282.726807 163.556976 0.000000
vertex 258.117737 151.458221 0.000000
vertex 258.095612 151.628052 0.000000
endloop
endfacet
facet normal 0.000000 0.000000 -1.000000
outer loop
vertex 285.854401 113.351212 0.000000
vertex 270.394836 125.977287 0.000000
vertex 285.854401 160.429413 0.000000
endloop
endfacet
facet normal 0.000000 0.000000 -1.000000
outer loop
vertex 285.854401 160.429413 0.000000
vertex 270.394836 125.977287 0.000000
vertex 270.299591 126.131584 0.000000
endloop
endfacet
facet normal 0.000000 0.000000 -1.000000
outer loop
vertex 285.854401 160.429413 0.000000
vertex 270.299591 126.131584 0.000000
vertex 270.175385 126.273026 0.000000
endloop
endfacet
facet normal 0.000000 0.000000 -1.000000
outer loop
vertex 285.785797 112.731094 0.000000
vertex 285.333771 111.619705 0.000000
vertex 285.854401 113.351212 0.000000
endloop
endfacet
facet normal 0.000000 0.000000 -1.000000
outer loop
vertex 285.854401 113.351212 0.000000
vertex 285.333771 111.619705 0.000000
vertex 284.949036 111.128998 0.000000
endloop
endfacet
facet normal 0.000000 0.000000 -1.000000
outer loop
vertex 285.854401 113.351212 0.000000
vertex 284.949036 111.128998 0.000000
vertex 284.458313 110.744240 0.000000
endloop
endfacet
facet normal 0.000000 0.000000 -1.000000
outer loop
vertex 285.785797 112.731094 0.000000
vertex 285.724762 112.431976 0.000000
vertex 285.333771 111.619705 0.000000
endloop
endfacet
facet normal 0.000000 0.000000 -1.000000
outer loop
vertex 285.333771 111.619705 0.000000
vertex 285.724762 112.431976 0.000000
vertex 285.498993 111.876175 0.000000
endloop
endfacet
facet normal 0.000000 0.000000 -1.000000
outer loop
vertex 285.498993 111.876175 0.000000
vertex 285.724762 112.431976 0.000000
vertex 285.631653 112.145988 0.000000
endloop
endfacet
facet normal 0.000000 0.000000 -1.000000
outer loop
vertex 284.458313 110.744240 0.000000
vertex 284.201843 110.579018 0.000000
vertex 285.854401 113.351212 0.000000
endloop
endfacet
facet normal 0.000000 0.000000 -1.000000
outer loop
vertex 285.854401 113.351212 0.000000
vertex 284.201843 110.579018 0.000000
vertex 283.932037 110.446396 0.000000
endloop
endfacet
facet normal 0.000000 0.000000 -1.000000
outer loop
vertex 285.854401 113.351212 0.000000
vertex 283.932037 110.446396 0.000000
vertex 283.646057 110.353279 0.000000
endloop
endfacet
facet normal 0.000000 0.000000 -1.000000
outer loop
vertex 283.646057 110.353279 0.000000
vertex 283.346924 110.292244 0.000000
vertex 285.854401 113.351212 0.000000
endloop
endfacet
facet normal 0.000000 0.000000 -1.000000
outer loop
vertex 285.854401 113.351212 0.000000
vertex 283.346924 110.292244 0.000000
vertex 282.726807 110.223648 0.000000
endloop
endfacet
facet normal 0.000000 0.000000 -1.000000
outer loop
vertex 285.854401 113.351212 0.000000
vertex 282.726807 110.223648 0.000000
vertex 270.416412 122.076569 0.000000
endloop
endfacet
facet normal 0.000000 0.000000 -1.000000
outer loop
vertex 270.416412 122.076569 0.000000
vertex 282.726807 110.223648 0.000000
vertex 270.385620 122.002007 0.000000
endloop
endfacet
facet normal 0.000000 0.000000 -1.000000
outer loop
vertex 270.385620 122.002007 0.000000
vertex 282.726807 110.223648 0.000000
vertex 270.292450 121.868317 0.000000
endloop
endfacet
facet normal 0.000000 0.000000 -1.000000
outer loop
vertex 270.292450 121.868317 0.000000
vertex 282.726807 110.223648 0.000000
vertex 270.175385 121.746277 0.000000
endloop
endfacet
facet normal 0.000000 0.000000 -1.000000
outer loop
vertex 270.175385 121.746277 0.000000
vertex 282.726807 110.223648 0.000000
vertex 270.036255 121.645782 0.000000
endloop
endfacet
facet normal 0.000000 0.000000 -1.000000
outer loop
vertex 270.036255 121.645782 0.000000
vertex 282.726807 110.223648 0.000000
vertex 269.889038 121.565857 0.000000
endloop
endfacet
facet normal 0.000000 0.000000 -1.000000
outer loop
vertex 269.889038 121.565857 0.000000
vertex 282.726807 110.223648 0.000000
vertex 269.727936 121.521492 0.000000
endloop
endfacet
facet normal 0.000000 0.000000 -1.000000
outer loop
vertex 269.727936 121.521492 0.000000
vertex 282.726807 110.223648 0.000000
vertex 269.558075 121.499367 0.000000
endloop
endfacet
facet normal 0.000000 0.000000 -1.000000
outer loop
vertex 269.558075 121.499367 0.000000
vertex 282.726807 110.223648 0.000000
vertex 254.084839 121.499367 0.000000
endloop
endfacet
facet normal 0.000000 0.000000 -1.000000
outer loop
vertex 254.084839 121.499367 0.000000
vertex 282.726807 110.223648 0.000000
vertex 238.776215 110.223648 0.000000
endloop
endfacet
facet normal 0.000000 0.000000 -1.000000
outer loop
vertex 254.084839 121.499367 0.000000
vertex 238.776215 110.223648 0.000000
vertex 253.915009 121.521492 0.000000
endloop
endfacet
facet normal 0.000000 0.000000 -1.000000
outer loop
vertex 253.915009 121.521492 0.000000
vertex 238.776215 110.223648 0.000000
vertex 253.753876 121.565857 0.000000
endloop
endfacet
facet normal 0.000000 0.000000 -1.000000
outer loop
vertex 253.753876 121.565857 0.000000
vertex 238.776215 110.223648 0.000000
vertex 253.606689 121.645782 0.000000
endloop
endfacet
facet normal 0.000000 0.000000 -1.000000
outer loop
vertex 253.606689 121.645782 0.000000
vertex 238.776215 110.223648 0.000000
vertex 253.467529 121.746277 0.000000
endloop
endfacet
facet normal 0.000000 0.000000 -1.000000
outer loop
vertex 253.467529 121.746277 0.000000
vertex 238.776215 110.223648 0.000000
vertex 253.350494 121.868317 0.000000
endloop
endfacet
facet normal 0.000000 0.000000 -1.000000
outer loop
vertex 253.350494 121.868317 0.000000
vertex 238.776215 110.223648 0.000000
vertex 253.257324 122.002014 0.000000
endloop
endfacet
facet normal 0.000000 0.000000 -1.000000
outer loop
vertex 253.257324 122.002014 0.000000
vertex 238.776215 110.223648 0.000000
vertex 253.226562 122.076584 0.000000
endloop
endfacet
facet normal 0.000000 0.000000 -1.000000
outer loop
vertex 253.226562 122.076584 0.000000
vertex 238.776215 110.223648 0.000000
vertex 235.648621 113.351212 0.000000
endloop
endfacet
facet normal 0.000000 0.000000 -1.000000
outer loop
vertex 253.226562 122.076584 0.000000
vertex 235.648621 113.351212 0.000000
vertex 253.205475 122.155891 0.000000
endloop
endfacet
facet normal 0.000000 0.000000 -1.000000
outer loop
vertex 253.205475 122.155891 0.000000
vertex 235.648621 113.351212 0.000000
vertex 253.179535 122.322411 0.000000
endloop
endfacet
facet normal 0.000000 0.000000 -1.000000
outer loop
vertex 253.179535 122.322411 0.000000
vertex 235.648621 113.351212 0.000000
vertex 253.179535 151.458221 0.000000
endloop
endfacet
facet normal 0.000000 0.000000 -1.000000
outer loop
vertex 253.179535 151.458221 0.000000
vertex 235.648621 113.351212 0.000000
vertex 235.648621 160.429413 0.000000
endloop
endfacet
facet normal 0.000000 0.000000 -1.000000
outer loop
vertex 253.179535 151.458221 0.000000
vertex 235.648621 160.429413 0.000000
vertex 253.207062 151.632629 0.000000
endloop
endfacet
facet normal 0.000000 0.000000 -1.000000
outer loop
vertex 253.207062 151.632629 0.000000
vertex 235.648621 160.429413 0.000000
vertex 238.776215 163.556976 0.000000
endloop
endfacet
facet normal 0.000000 0.000000 -1.000000
outer loop
vertex 253.207062 151.632629 0.000000
vertex 238.776215 163.556976 0.000000
vertex 253.259979 151.795563 0.000000
endloop
endfacet
facet normal 0.000000 0.000000 -1.000000
outer loop
vertex 253.259979 151.795563 0.000000
vertex 238.776215 163.556976 0.000000
vertex 253.352509 151.940628 0.000000
endloop
endfacet
facet normal 0.000000 0.000000 -1.000000
outer loop
vertex 253.352509 151.940628 0.000000
vertex 238.776215 163.556976 0.000000
vertex 253.467529 152.075500 0.000000
endloop
endfacet
facet normal 0.000000 0.000000 -1.000000
outer loop
vertex 253.467529 152.075500 0.000000
vertex 238.776215 163.556976 0.000000
vertex 253.602417 152.190552 0.000000
endloop
endfacet
facet normal 0.000000 0.000000 -1.000000
outer loop
vertex 253.602417 152.190552 0.000000
vertex 238.776215 163.556976 0.000000
vertex 253.747467 152.283081 0.000000
endloop
endfacet
facet normal 0.000000 0.000000 -1.000000
outer loop
vertex 253.747467 152.283081 0.000000
vertex 238.776215 163.556976 0.000000
vertex 253.910431 152.336014 0.000000
endloop
endfacet
facet normal 0.000000 0.000000 -1.000000
outer loop
vertex 253.910431 152.336014 0.000000
vertex 238.776215 163.556976 0.000000
vertex 254.084839 152.363556 0.000000
endloop
endfacet
facet normal 0.000000 0.000000 -1.000000
outer loop
vertex 254.084839 152.363556 0.000000
vertex 238.776215 163.556976 0.000000
vertex 257.212433 152.363556 0.000000
endloop
endfacet
facet normal 0.000000 0.000000 -1.000000
outer loop
vertex 257.212433 152.363556 0.000000
vertex 238.776215 163.556976 0.000000
vertex 257.399902 152.343079 0.000000
endloop
endfacet
facet normal 0.000000 0.000000 -1.000000
outer loop
vertex 257.399902 152.343079 0.000000
vertex 238.776215 163.556976 0.000000
vertex 282.726807 163.556976 0.000000
endloop
endfacet
facet normal 0.000000 0.000000 -1.000000
outer loop
vertex 257.399902 152.343079 0.000000
vertex 282.726807 163.556976 0.000000
vertex 257.575104 152.294937 0.000000
endloop
endfacet
facet normal 0.000000 0.000000 -1.000000
outer loop
vertex 257.575104 152.294937 0.000000
vertex 282.726807 163.556976 0.000000
vertex 257.729401 152.199707 0.000000
endloop
endfacet
facet normal 0.000000 0.000000 -1.000000
outer loop
vertex 257.729401 152.199707 0.000000
vertex 282.726807 163.556976 0.000000
vertex 257.870850 152.075500 0.000000
endloop
endfacet
facet normal 0.000000 0.000000 -1.000000
outer loop
vertex 257.870850 152.075500 0.000000
vertex 282.726807 163.556976 0.000000
vertex 257.971344 151.936371 0.000000
endloop
endfacet
facet normal 0.000000 0.000000 -1.000000
outer loop
vertex 257.971344 151.936371 0.000000
vertex 282.726807 163.556976 0.000000
vertex 258.051239 151.789169 0.000000
endloop
endfacet
facet normal 0.000000 0.000000 -1.000000
outer loop
vertex 258.051239 151.789169 0.000000
vertex 282.726807 163.556976 0.000000
vertex 258.095612 151.628052 0.000000
endloop
endfacet
facet normal 0.000000 0.000000 -1.000000
outer loop
vertex 238.776215 110.223648 0.000000
vertex 238.156097 110.292244 0.000000
vertex 235.648621 113.351212 0.000000
endloop
endfacet
facet normal 0.000000 0.000000 -1.000000
outer loop
vertex 235.648621 113.351212 0.000000
vertex 238.156097 110.292244 0.000000
vertex 237.856995 110.353279 0.000000
endloop
endfacet
facet normal 0.000000 0.000000 -1.000000
outer loop
vertex 235.648621 113.351212 0.000000
vertex 237.856995 110.353279 0.000000
vertex 237.571014 110.446396 0.000000
endloop
endfacet
facet normal 0.000000 0.000000 -1.000000
outer loop
vertex 237.571014 110.446396 0.000000
vertex 237.301178 110.579018 0.000000
vertex 235.648621 113.351212 0.000000
endloop
endfacet
facet normal 0.000000 0.000000 -1.000000
outer loop
vertex 235.648621 113.351212 0.000000
vertex 237.301178 110.579018 0.000000
vertex 237.044708 110.744240 0.000000
endloop
endfacet
facet normal 0.000000 0.000000 -1.000000
outer loop
vertex 235.648621 113.351212 0.000000
vertex 237.044708 110.744240 0.000000
vertex 236.554016 111.128998 0.000000
endloop
endfacet
facet normal 0.000000 0.000000 -1.000000
outer loop
vertex 236.554016 111.128998 0.000000
vertex 236.169250 111.619705 0.000000
vertex 235.648621 113.351212 0.000000
endloop
endfacet
facet normal 0.000000 0.000000 -1.000000
outer loop
vertex 235.648621 113.351212 0.000000
vertex 236.169250 111.619705 0.000000
vertex 235.717255 112.731094 0.000000
endloop
endfacet
facet normal 0.000000 0.000000 -1.000000
outer loop
vertex 235.717255 112.731094 0.000000
vertex 236.169250 111.619705 0.000000
vertex 235.778290 112.431976 0.000000
endloop
endfacet
facet normal 0.000000 0.000000 -1.000000
outer loop
vertex 235.778290 112.431976 0.000000
vertex 236.169250 111.619705 0.000000
vertex 236.004028 111.876175 0.000000
endloop
endfacet
facet normal 0.000000 0.000000 -1.000000
outer loop
vertex 235.778290 112.431976 0.000000
vertex 236.004028 111.876175 0.000000
vertex 235.871399 112.145988 0.000000
endloop
endfacet
facet normal 0.000000 0.000000 -1.000000
outer loop
vertex 238.776215 163.556976 0.000000
vertex 235.648621 160.429413 0.000000
vertex 238.156097 163.488373 0.000000
endloop
endfacet
facet normal 0.000000 0.000000 -1.000000
outer loop
vertex 238.156097 163.488373 0.000000
vertex 235.648621 160.429413 0.000000
vertex 235.717255 161.049530 0.000000
endloop
endfacet
facet normal 0.000000 0.000000 -1.000000
outer loop
vertex 238.156097 163.488373 0.000000
vertex 235.717255 161.049530 0.000000
vertex 237.044708 163.036392 0.000000
endloop
endfacet
facet normal 0.000000 0.000000 -1.000000
outer loop
vertex 237.044708 163.036392 0.000000
vertex 235.717255 161.049530 0.000000
vertex 236.554016 162.651642 0.000000
endloop
endfacet
facet normal 0.000000 0.000000 -1.000000
outer loop
vertex 236.554016 162.651642 0.000000
vertex 235.717255 161.049530 0.000000
vertex 236.169250 162.160919 0.000000
endloop
endfacet
facet normal 0.000000 0.000000 -1.000000
outer loop
vertex 236.169250 162.160919 0.000000
vertex 235.717255 161.049530 0.000000
vertex 235.778290 161.348648 0.000000
endloop
endfacet
facet normal 0.000000 0.000000 -1.000000
outer loop
vertex 236.169250 162.160919 0.000000
vertex 235.778290 161.348648 0.000000
vertex 236.004028 161.904449 0.000000
endloop
endfacet
facet normal 0.000000 0.000000 -1.000000
outer loop
vertex 236.004028 161.904449 0.000000
vertex 235.778290 161.348648 0.000000
vertex 235.871399 161.634644 0.000000
endloop
endfacet
facet normal 0.000000 0.000000 -1.000000
outer loop
vertex 238.156097 163.488373 0.000000
vertex 237.044708 163.036392 0.000000
vertex 237.856995 163.427353 0.000000
endloop
endfacet
facet normal 0.000000 0.000000 -1.000000
outer loop
vertex 237.856995 163.427353 0.000000
vertex 237.044708 163.036392 0.000000
vertex 237.301208 163.201599 0.000000
endloop
endfacet
facet normal 0.000000 0.000000 -1.000000
outer loop
vertex 237.856995 163.427353 0.000000
vertex 237.301208 163.201599 0.000000
vertex 237.571014 163.334229 0.000000
endloop
endfacet
facet normal 0.000000 0.000000 -1.000000
outer loop
vertex 270.416412 122.076569 0.000000
vertex 270.437500 122.155884 0.000000
vertex 285.854401 113.351212 0.000000
endloop
endfacet
facet normal 0.000000 0.000000 -1.000000
outer loop
vertex 285.854401 113.351212 0.000000
vertex 270.437500 122.155884 0.000000
vertex 270.463470 122.322411 0.000000
endloop
endfacet
facet normal 0.000000 0.000000 -1.000000
outer loop
vertex 285.854401 113.351212 0.000000
vertex 270.463470 122.322411 0.000000
vertex 270.463470 125.614594 0.000000
endloop
endfacet
facet normal 0.000000 0.000000 -1.000000
outer loop
vertex 270.463470 125.614594 0.000000
vertex 270.442963 125.802078 0.000000
vertex 285.854401 113.351212 0.000000
endloop
endfacet
facet normal 0.000000 0.000000 -1.000000
outer loop
vertex 285.854401 113.351212 0.000000
vertex 270.442963 125.802078 0.000000
vertex 270.394836 125.977287 0.000000
endloop
endfacet
facet normal 0.000000 0.000000 -1.000000
outer loop
vertex 270.175385 126.273026 0.000000
vertex 270.036255 126.373528 0.000000
vertex 285.854401 160.429413 0.000000
endloop
endfacet
facet normal 0.000000 0.000000 -1.000000
outer loop
vertex 285.854401 160.429413 0.000000
vertex 270.036255 126.373528 0.000000
vertex 269.889038 126.453445 0.000000
endloop
endfacet
facet normal 0.000000 0.000000 -1.000000
outer loop
vertex 285.854401 160.429413 0.000000
vertex 269.889038 126.453445 0.000000
vertex 258.117737 151.458221 0.000000
endloop
endfacet
facet normal 0.000000 0.000000 -1.000000
outer loop
vertex 258.117737 151.458221 0.000000
vertex 269.889038 126.453445 0.000000
vertex 269.727905 126.497818 0.000000
endloop
endfacet
facet normal 0.000000 0.000000 -1.000000
outer loop
vertex 258.117737 151.458221 0.000000
vertex 269.727905 126.497818 0.000000
vertex 269.558075 126.519943 0.000000
endloop
endfacet
facet normal 0.000000 0.000000 -1.000000
outer loop
vertex 258.117737 151.458221 0.000000
vertex 269.558075 126.519943 0.000000
vertex 258.117737 127.342987 0.000000
endloop
endfacet
facet normal 0.000000 0.000000 -1.000000
outer loop
vertex 258.117737 127.342987 0.000000
vertex 269.558075 126.519943 0.000000
vertex 258.940796 126.519943 0.000000
endloop
endfacet
facet normal 0.000000 0.000000 -1.000000
outer loop
vertex 258.117737 127.342987 0.000000
vertex 258.940796 126.519943 0.000000
vertex 258.779266 126.540436 0.000000
endloop
endfacet
facet normal 0.000000 0.000000 -1.000000
outer loop
vertex 258.779266 126.540436 0.000000
vertex 258.627411 126.583702 0.000000
vertex 258.117737 127.342987 0.000000
endloop
endfacet
facet normal 0.000000 0.000000 -1.000000
outer loop
vertex 258.117737 127.342987 0.000000
vertex 258.627411 126.583702 0.000000
vertex 258.491364 126.664268 0.000000
endloop
endfacet
facet normal 0.000000 0.000000 -1.000000
outer loop
vertex 258.117737 127.342987 0.000000
vertex 258.491364 126.664268 0.000000
vertex 258.364685 126.766861 0.000000
endloop
endfacet
facet normal 0.000000 0.000000 -1.000000
outer loop
vertex 258.364685 126.766861 0.000000
vertex 258.262085 126.893539 0.000000
vertex 258.117737 127.342987 0.000000
endloop
endfacet
facet normal 0.000000 0.000000 -1.000000
outer loop
vertex 258.117737 127.342987 0.000000
vertex 258.262085 126.893539 0.000000
vertex 258.138245 127.181442 0.000000
endloop
endfacet
facet normal 0.000000 0.000000 -1.000000
outer loop
vertex 258.138245 127.181442 0.000000
vertex 258.262085 126.893539 0.000000
vertex 258.181519 127.029572 0.000000
endloop
endfacet
facet normal 0.988472 0.151402 0.000000
outer loop
vertex 285.823456 160.872650 0.000000
vertex 285.777008 161.175766 0.000000
vertex 285.823456 160.872650 3.000000
endloop
endfacet
facet normal 0.988472 0.151402 0.000000
outer loop
vertex 285.823456 160.872650 3.000000
vertex 285.777008 161.175766 0.000000
vertex 285.777008 161.175766 3.000000
endloop
endfacet
facet normal 0.961751 0.273924 0.000000
outer loop
vertex 285.777008 161.175766 3.000000
vertex 285.777008 161.175766 0.000000
vertex 285.693451 161.469208 0.000000
endloop
endfacet
facet normal 0.961751 0.273924 0.000000
outer loop
vertex 285.777008 161.175766 3.000000
vertex 285.693451 161.469208 0.000000
vertex 285.693451 161.469208 3.000000
endloop
endfacet
facet normal 0.925126 0.379661 0.000000
outer loop
vertex 285.693451 161.469208 3.000000
vertex 285.693451 161.469208 0.000000
vertex 285.576569 161.753967 0.000000
endloop
endfacet
facet normal 0.925126 0.379661 0.000000
outer loop
vertex 285.693451 161.469208 3.000000
vertex 285.576569 161.753967 0.000000
vertex 285.576569 161.753967 3.000000
endloop
endfacet
facet normal 0.902568 0.430547 0.000000
outer loop
vertex 285.576569 161.753967 3.000000
vertex 285.576569 161.753967 0.000000
vertex 285.442871 162.034348 0.000000
endloop
endfacet
facet normal 0.902670 0.430334 0.000000
outer loop
vertex 285.576569 161.753967 3.000000
vertex 285.442871 162.034348 0.000000
vertex 285.442871 162.034348 3.000000
endloop
endfacet
facet normal 0.627103 0.778937 0.000000
outer loop
vertex 284.672943 162.891006 3.000000
vertex 284.897614 162.710114 3.000000
vertex 284.672943 162.891006 0.000000
endloop
endfacet
facet normal 0.627103 0.778937 0.000000
outer loop
vertex 284.672943 162.891006 0.000000
vertex 284.897614 162.710114 3.000000
vertex 284.897614 162.710114 0.000000
endloop
endfacet
facet normal 0.720187 0.693780 0.000000
outer loop
vertex 284.897614 162.710114 0.000000
vertex 284.897614 162.710114 3.000000
vertex 285.097046 162.503143 3.000000
endloop
endfacet
facet normal 0.720045 0.693927 0.000000
outer loop
vertex 284.897614 162.710114 0.000000
vertex 285.097046 162.503143 3.000000
vertex 285.097046 162.503143 0.000000
endloop
endfacet
facet normal 0.789052 0.614327 0.000000
outer loop
vertex 285.097046 162.503143 0.000000
vertex 285.097046 162.503143 3.000000
vertex 285.275269 162.274231 3.000000
endloop
endfacet
facet normal 0.789052 0.614327 0.000000
outer loop
vertex 285.097046 162.503143 0.000000
vertex 285.275269 162.274231 3.000000
vertex 285.275269 162.274231 0.000000
endloop
endfacet
facet normal 0.819739 0.572738 0.000000
outer loop
vertex 285.275269 162.274231 0.000000
vertex 285.275269 162.274231 3.000000
vertex 285.442871 162.034348 3.000000
endloop
endfacet
facet normal 0.819739 0.572738 0.000000
outer loop
vertex 285.275269 162.274231 0.000000
vertex 285.442871 162.034348 3.000000
vertex 285.442871 162.034348 0.000000
endloop
endfacet
facet normal 0.598295 0.801276 0.000000
outer loop
vertex 284.672943 162.891006 0.000000
vertex 284.507568 163.014450 0.000000
vertex 284.672943 162.891006 3.000000
endloop
endfacet
facet normal 0.598106 0.801417 0.000000
outer loop
vertex 284.672943 162.891006 3.000000
vertex 284.507568 163.014450 0.000000
vertex 284.507568 163.014450 3.000000
endloop
endfacet
facet normal 0.525042 0.851076 0.000000
outer loop
vertex 284.507568 163.014450 3.000000
vertex 284.507568 163.014450 0.000000
vertex 284.332031 163.122742 0.000000
endloop
endfacet
facet normal 0.525042 0.851076 0.000000
outer loop
vertex 284.507568 163.014450 3.000000
vertex 284.332031 163.122742 0.000000
vertex 284.332031 163.122742 3.000000
endloop
endfacet
facet normal 0.466080 0.884742 0.000000
outer loop
vertex 284.332031 163.122742 3.000000
vertex 284.332031 163.122742 0.000000
vertex 284.148682 163.219330 0.000000
endloop
endfacet
facet normal 0.466080 0.884742 0.000000
outer loop
vertex 284.332031 163.122742 3.000000
vertex 284.148682 163.219330 0.000000
vertex 284.148682 163.219330 3.000000
endloop
endfacet
facet normal 0.436032 0.899931 0.000000
outer loop
vertex 284.148682 163.219330 3.000000
vertex 284.148682 163.219330 0.000000
vertex 283.961395 163.310059 0.000000
endloop
endfacet
facet normal 0.435879 0.900005 0.000000
outer loop
vertex 284.148682 163.219330 3.000000
vertex 283.961395 163.310059 0.000000
vertex 283.961395 163.310059 3.000000
endloop
endfacet
facet normal -1.000000 0.000000 0.000000
outer loop
vertex 270.463470 125.614594 0.000000
vertex 270.463470 122.322411 0.000000
vertex 270.463470 125.614594 3.000000
endloop
endfacet
facet normal -1.000000 0.000000 0.000000
outer loop
vertex 270.463470 125.614594 3.000000
vertex 270.463470 122.322411 0.000000
vertex 270.463470 122.322411 3.000000
endloop
endfacet
facet normal -0.751349 -0.659905 0.000000
outer loop
vertex 270.175385 126.273026 0.000000
vertex 270.299591 126.131584 0.000000
vertex 270.175385 126.273026 3.000000
endloop
endfacet
facet normal -0.751349 -0.659905 0.000000
outer loop
vertex 270.175385 126.273026 3.000000
vertex 270.299591 126.131584 0.000000
vertex 270.299591 126.131584 3.000000
endloop
endfacet
facet normal -0.850910 -0.525311 0.000000
outer loop
vertex 270.299591 126.131584 3.000000
vertex 270.299591 126.131584 0.000000
vertex 270.394836 125.977287 0.000000
endloop
endfacet
facet normal -0.851010 -0.525149 0.000000
outer loop
vertex 270.299591 126.131584 3.000000
vertex 270.394836 125.977287 0.000000
vertex 270.394836 125.977287 3.000000
endloop
endfacet
facet normal -0.964327 -0.264712 0.000000
outer loop
vertex 270.394836 125.977287 3.000000
vertex 270.394836 125.977287 0.000000
vertex 270.442963 125.802078 0.000000
endloop
endfacet
facet normal -0.964270 -0.264921 0.000000
outer loop
vertex 270.394836 125.977287 3.000000
vertex 270.442963 125.802078 0.000000
vertex 270.442963 125.802078 3.000000
endloop
endfacet
facet normal -0.994071 -0.108735 0.000000
outer loop
vertex 270.442963 125.802078 3.000000
vertex 270.442963 125.802078 0.000000
vertex 270.463470 125.614594 0.000000
endloop
endfacet
facet normal -0.994071 -0.108735 0.000000
outer loop
vertex 270.442963 125.802078 3.000000
vertex 270.463470 125.614594 0.000000
vertex 270.463470 125.614594 3.000000
endloop
endfacet
facet normal -0.129149 -0.991625 0.000000
outer loop
vertex 269.558075 126.519943 0.000000
vertex 269.727905 126.497818 0.000000
vertex 269.558075 126.519943 3.000000
endloop
endfacet
facet normal -0.129210 -0.991617 0.000000
outer loop
vertex 269.558075 126.519943 3.000000
vertex 269.727905 126.497818 0.000000
vertex 269.727905 126.497818 3.000000
endloop
endfacet
facet normal -0.265496 -0.964112 0.000000
outer loop
vertex 269.727905 126.497818 3.000000
vertex 269.727905 126.497818 0.000000
vertex 269.889038 126.453445 0.000000
endloop
endfacet
facet normal -0.265496 -0.964112 0.000000
outer loop
vertex 269.727905 126.497818 3.000000
vertex 269.889038 126.453445 0.000000
vertex 269.889038 126.453445 3.000000
endloop
endfacet
facet normal -0.477093 -0.878853 0.000000
outer loop
vertex 269.889038 126.453445 3.000000
vertex 269.889038 126.453445 0.000000
vertex 270.036255 126.373528 0.000000
endloop
endfacet
facet normal -0.477093 -0.878853 0.000000
outer loop
vertex 269.889038 126.453445 3.000000
vertex 270.036255 126.373528 0.000000
vertex 270.036255 126.373528 3.000000
endloop
endfacet
facet normal -0.585481 -0.810686 0.000000
outer loop
vertex 270.036255 126.373528 3.000000
vertex 270.036255 126.373528 0.000000
vertex 270.175385 126.273026 0.000000
endloop
endfacet
facet normal -0.585706 -0.810524 0.000000
outer loop
vertex 270.036255 126.373528 3.000000
vertex 270.175385 126.273026 0.000000
vertex 270.175385 126.273026 3.000000
endloop
endfacet
facet normal 0.000000 -1.000000 0.000000
outer loop
vertex 258.940796 126.519943 0.000000
vertex 269.558075 126.519943 0.000000
vertex 258.940796 126.519943 3.000000
endloop
endfacet
facet normal 0.000000 -1.000000 0.000000
outer loop
vertex 258.940796 126.519943 3.000000
vertex 269.558075 126.519943 0.000000
vertex 269.558075 126.519943 3.000000
endloop
endfacet
facet normal -0.629267 -0.777189 0.000000
outer loop
vertex 258.364685 126.766861 0.000000
vertex 258.491364 126.664268 0.000000
vertex 258.364685 126.766861 3.000000
endloop
endfacet
facet normal -0.629389 -0.777090 0.000000
outer loop
vertex 258.364685 126.766861 3.000000
vertex 258.491364 126.664268 0.000000
vertex 258.491364 126.664268 3.000000
endloop
endfacet
facet normal -0.509605 -0.860409 0.000000
outer loop
vertex 258.491364 126.664268 3.000000
vertex 258.491364 126.664268 0.000000
vertex 258.627411 126.583702 0.000000
endloop
endfacet
facet normal -0.509605 -0.860409 0.000000
outer loop
vertex 258.491364 126.664268 3.000000
vertex 258.627411 126.583702 0.000000
vertex 258.627411 126.583702 3.000000
endloop
endfacet
facet normal -0.274013 -0.961726 0.000000
outer loop
vertex 258.627411 126.583702 3.000000
vertex 258.627411 126.583702 0.000000
vertex 258.779266 126.540436 0.000000
endloop
endfacet
facet normal -0.274013 -0.961726 0.000000
outer loop
vertex 258.627411 126.583702 3.000000
vertex 258.779266 126.540436 0.000000
vertex 258.779266 126.540436 3.000000
endloop
endfacet
facet normal -0.125818 -0.992053 0.000000
outer loop
vertex 258.779266 126.540436 3.000000
vertex 258.779266 126.540436 0.000000
vertex 258.940796 126.519943 0.000000
endloop
endfacet
facet normal -0.125880 -0.992045 0.000000
outer loop
vertex 258.779266 126.540436 3.000000
vertex 258.940796 126.519943 0.000000
vertex 258.940796 126.519943 3.000000
endloop
endfacet
facet normal -0.992038 -0.125937 0.000000
outer loop
vertex 258.117737 127.342987 0.000000
vertex 258.138245 127.181442 0.000000
vertex 258.117737 127.342987 3.000000
endloop
endfacet
facet normal -0.992038 -0.125937 0.000000
outer loop
vertex 258.117737 127.342987 3.000000
vertex 258.138245 127.181442 0.000000
vertex 258.138245 127.181442 3.000000
endloop
endfacet
facet normal -0.961755 -0.273913 0.000000
outer loop
vertex 258.138245 127.181442 3.000000
vertex 258.138245 127.181442 0.000000
vertex 258.181519 127.029572 0.000000
endloop
endfacet
facet normal -0.961687 -0.274151 0.000000
outer loop
vertex 258.138245 127.181442 3.000000
vertex 258.181519 127.029572 0.000000
vertex 258.181519 127.029572 3.000000
endloop
endfacet
facet normal -0.860417 -0.509591 0.000000
outer loop
vertex 258.181519 127.029572 3.000000
vertex 258.181519 127.029572 0.000000
vertex 258.262085 126.893539 0.000000
endloop
endfacet
facet normal -0.860417 -0.509591 0.000000
outer loop
vertex 258.181519 127.029572 3.000000
vertex 258.262085 126.893539 0.000000
vertex 258.262085 126.893539 3.000000
endloop
endfacet
facet normal -0.777031 -0.629462 0.000000
outer loop
vertex 258.262085 126.893539 3.000000
vertex 258.262085 126.893539 0.000000
vertex 258.364685 126.766861 0.000000
endloop
endfacet
facet normal -0.777153 -0.629311 0.000000
outer loop
vertex 258.262085 126.893539 3.000000
vertex 258.364685 126.766861 0.000000
vertex 258.364685 126.766861 3.000000
endloop
endfacet
facet normal -1.000000 0.000000 0.000000
outer loop
vertex 258.117737 151.458221 0.000000
vertex 258.117737 127.342987 0.000000
vertex 258.117737 151.458221 3.000000
endloop
endfacet
facet normal -1.000000 0.000000 0.000000
outer loop
vertex 258.117737 151.458221 3.000000
vertex 258.117737 127.342987 0.000000
vertex 258.117737 127.342987 3.000000
endloop
endfacet
facet normal -0.810731 -0.585419 0.000000
outer loop
vertex 257.870850 152.075500 0.000000
vertex 257.971344 151.936371 0.000000
vertex 257.870850 152.075500 3.000000
endloop
endfacet
facet normal -0.810506 -0.585731 0.000000
outer loop
vertex 257.870850 152.075500 3.000000
vertex 257.971344 151.936371 0.000000
vertex 257.971344 151.936371 3.000000
endloop
endfacet
facet normal -0.878940 -0.476932 0.000000
outer loop
vertex 257.971344 151.936371 3.000000
vertex 257.971344 151.936371 0.000000
vertex 258.051239 151.789169 0.000000
endloop
endfacet
facet normal -0.878940 -0.476932 0.000000
outer loop
vertex 257.971344 151.936371 3.000000
vertex 258.051239 151.789169 0.000000
vertex 258.051239 151.789169 3.000000
endloop
endfacet
facet normal -0.964074 -0.265633 0.000000
outer loop
vertex 258.051239 151.789169 3.000000
vertex 258.051239 151.789169 0.000000
vertex 258.095612 151.628052 0.000000
endloop
endfacet
facet normal -0.964074 -0.265633 0.000000
outer loop
vertex 258.051239 151.789169 3.000000
vertex 258.095612 151.628052 0.000000
vertex 258.095612 151.628052 3.000000
endloop
endfacet
facet normal -0.991613 -0.129245 0.000000
outer loop
vertex 258.095612 151.628052 3.000000
vertex 258.095612 151.628052 0.000000
vertex 258.117737 151.458221 0.000000
endloop
endfacet
facet normal -0.991643 -0.129012 0.000000
outer loop
vertex 258.095612 151.628052 3.000000
vertex 258.117737 151.458221 0.000000
vertex 258.117737 151.458221 3.000000
endloop
endfacet
facet normal -0.108613 -0.994084 0.000000
outer loop
vertex 257.212433 152.363556 0.000000
vertex 257.399902 152.343079 0.000000
vertex 257.212433 152.363556 3.000000
endloop
endfacet
facet normal -0.108567 -0.994089 0.000000
outer loop
vertex 257.212433 152.363556 3.000000
vertex 257.399902 152.343079 0.000000
vertex 257.399902 152.343079 3.000000
endloop
endfacet
facet normal -0.265000 -0.964248 0.000000
outer loop
vertex 257.399902 152.343079 3.000000
vertex 257.399902 152.343079 0.000000
vertex 257.575104 152.294937 0.000000
endloop
endfacet
facet normal -0.264886 -0.964280 0.000000
outer loop
vertex 257.399902 152.343079 3.000000
vertex 257.575104 152.294937 0.000000
vertex 257.575104 152.294937 3.000000
endloop
endfacet
facet normal -0.525210 -0.850973 0.000000
outer loop
vertex 257.575104 152.294937 3.000000
vertex 257.575104 152.294937 0.000000
vertex 257.729401 152.199707 0.000000
endloop
endfacet
facet normal -0.525210 -0.850973 0.000000
outer loop
vertex 257.575104 152.294937 3.000000
vertex 257.729401 152.199707 0.000000
vertex 257.729401 152.199707 3.000000
endloop
endfacet
facet normal -0.659957 -0.751303 0.000000
outer loop
vertex 257.729401 152.199707 3.000000
vertex 257.729401 152.199707 0.000000
vertex 257.870850 152.075500 0.000000
endloop
endfacet
facet normal -0.659743 -0.751491 0.000000
outer loop
vertex 257.729401 152.199707 3.000000
vertex 257.870850 152.075500 0.000000
vertex 257.870850 152.075500 3.000000
endloop
endfacet
facet normal 0.000000 -1.000000 0.000000
outer loop
vertex 254.084839 152.363556 0.000000
vertex 257.212433 152.363556 0.000000
vertex 254.084839 152.363556 3.000000
endloop
endfacet
facet normal 0.000000 -1.000000 0.000000
outer loop
vertex 254.084839 152.363556 3.000000
vertex 257.212433 152.363556 0.000000
vertex 257.212433 152.363556 3.000000
endloop
endfacet
facet normal 0.648947 -0.760834 0.000000
outer loop
vertex 253.467529 152.075500 0.000000
vertex 253.602417 152.190552 0.000000
vertex 253.467529 152.075500 3.000000
endloop
endfacet
facet normal 0.648947 -0.760834 0.000000
outer loop
vertex 253.467529 152.075500 3.000000
vertex 253.602417 152.190552 0.000000
vertex 253.602417 152.190552 3.000000
endloop
endfacet
facet normal 0.537778 -0.843087 0.000000
outer loop
vertex 253.602417 152.190552 3.000000
vertex 253.602417 152.190552 0.000000
vertex 253.747467 152.283081 0.000000
endloop
endfacet
facet normal 0.537778 -0.843087 0.000000
outer loop
vertex 253.602417 152.190552 3.000000
vertex 253.747467 152.283081 0.000000
vertex 253.747467 152.283081 3.000000
endloop
endfacet
facet normal 0.308995 -0.951064 0.000000
outer loop
vertex 253.747467 152.283081 3.000000
vertex 253.747467 152.283081 0.000000
vertex 253.910431 152.336014 0.000000
endloop
endfacet
facet normal 0.308855 -0.951109 0.000000
outer loop
vertex 253.747467 152.283081 3.000000
vertex 253.910431 152.336014 0.000000
vertex 253.910431 152.336014 3.000000
endloop
endfacet
facet normal 0.155994 -0.987758 0.000000
outer loop
vertex 253.910431 152.336014 3.000000
vertex 253.910431 152.336014 0.000000
vertex 254.084839 152.363556 0.000000
endloop
endfacet
facet normal 0.155994 -0.987758 0.000000
outer loop
vertex 253.910431 152.336014 3.000000
vertex 254.084839 152.363556 0.000000
vertex 254.084839 152.363556 3.000000
endloop
endfacet
facet normal 0.987755 -0.156013 0.000000
outer loop
vertex 253.179535 151.458221 0.000000
vertex 253.207062 151.632629 0.000000
vertex 253.179535 151.458221 3.000000
endloop
endfacet
facet normal 0.987755 -0.156013 0.000000
outer loop
vertex 253.179535 151.458221 3.000000
vertex 253.207062 151.632629 0.000000
vertex 253.207062 151.632629 3.000000
endloop
endfacet
facet normal 0.951130 -0.308789 0.000000
outer loop
vertex 253.207062 151.632629 3.000000
vertex 253.207062 151.632629 0.000000
vertex 253.259979 151.795563 0.000000
endloop
endfacet
facet normal 0.951130 -0.308789 0.000000
outer loop
vertex 253.207062 151.632629 3.000000
vertex 253.259979 151.795563 0.000000
vertex 253.259979 151.795563 3.000000
endloop
endfacet
facet normal 0.843095 -0.537765 0.000000
outer loop
vertex 253.259979 151.795563 3.000000
vertex 253.259979 151.795563 0.000000
vertex 253.352509 151.940628 0.000000
endloop
endfacet
facet normal 0.843095 -0.537765 0.000000
outer loop
vertex 253.259979 151.795563 3.000000
vertex 253.352509 151.940628 0.000000
vertex 253.352509 151.940628 3.000000
endloop
endfacet
facet normal 0.760854 -0.648923 0.000000
outer loop
vertex 253.352509 151.940628 3.000000
vertex 253.352509 151.940628 0.000000
vertex 253.467529 152.075500 0.000000
endloop
endfacet
facet normal 0.760854 -0.648923 0.000000
outer loop
vertex 253.352509 151.940628 3.000000
vertex 253.467529 152.075500 0.000000
vertex 253.467529 152.075500 3.000000
endloop
endfacet
facet normal 1.000000 0.000000 0.000000
outer loop
vertex 253.179535 122.322411 0.000000
vertex 253.179535 151.458221 0.000000
vertex 253.179535 122.322411 3.000000
endloop
endfacet
facet normal 1.000000 0.000000 0.000000
outer loop
vertex 253.179535 122.322411 3.000000
vertex 253.179535 151.458221 0.000000
vertex 253.179535 151.458221 3.000000
endloop
endfacet
facet normal 0.721781 0.692121 0.000000
outer loop
vertex 253.467529 121.746277 0.000000
vertex 253.350494 121.868317 0.000000
vertex 253.467529 121.746277 3.000000
endloop
endfacet
facet normal 0.721781 0.692121 0.000000
outer loop
vertex 253.467529 121.746277 3.000000
vertex 253.350494 121.868317 0.000000
vertex 253.350494 121.868317 3.000000
endloop
endfacet
facet normal 0.820406 0.571781 0.000000
outer loop
vertex 253.350494 121.868317 3.000000
vertex 253.350494 121.868317 0.000000
vertex 253.257324 122.002014 0.000000
endloop
endfacet
facet normal 0.820406 0.571781 0.000000
outer loop
vertex 253.350494 121.868317 3.000000
vertex 253.257324 122.002014 0.000000
vertex 253.257324 122.002014 3.000000
endloop
endfacet
facet normal 0.924431 0.381349 0.000000
outer loop
vertex 253.257324 122.002014 3.000000
vertex 253.257324 122.002014 0.000000
vertex 253.226562 122.076584 0.000000
endloop
endfacet
facet normal 0.924431 0.381349 0.000000
outer loop
vertex 253.257324 122.002014 3.000000
vertex 253.226562 122.076584 0.000000
vertex 253.226562 122.076584 3.000000
endloop
endfacet
facet normal 0.966451 0.256852 0.000000
outer loop
vertex 253.226562 122.076584 3.000000
vertex 253.226562 122.076584 0.000000
vertex 253.205475 122.155891 0.000000
endloop
endfacet
facet normal 0.966451 0.256852 0.000000
outer loop
vertex 253.226562 122.076584 3.000000
vertex 253.205475 122.155891 0.000000
vertex 253.205475 122.155891 3.000000
endloop
endfacet
facet normal 0.988065 0.154039 0.000000
outer loop
vertex 253.205475 122.155891 3.000000
vertex 253.205475 122.155891 0.000000
vertex 253.179535 122.322411 0.000000
endloop
endfacet
facet normal 0.988065 0.154039 0.000000
outer loop
vertex 253.205475 122.155891 3.000000
vertex 253.179535 122.322411 0.000000
vertex 253.179535 122.322411 3.000000
endloop
endfacet
facet normal 0.129179 0.991621 0.000000
outer loop
vertex 254.084839 121.499367 0.000000
vertex 253.915009 121.521492 0.000000
vertex 254.084839 121.499367 3.000000
endloop
endfacet
facet normal 0.129179 0.991621 0.000000
outer loop
vertex 254.084839 121.499367 3.000000
vertex 253.915009 121.521492 0.000000
vertex 253.915009 121.521492 3.000000
endloop
endfacet
facet normal 0.265454 0.964124 0.000000
outer loop
vertex 253.915009 121.521492 3.000000
vertex 253.915009 121.521492 0.000000
vertex 253.753876 121.565857 0.000000
endloop
endfacet
facet normal 0.265454 0.964124 0.000000
outer loop
vertex 253.915009 121.521492 3.000000
vertex 253.753876 121.565857 0.000000
vertex 253.753876 121.565857 3.000000
endloop
endfacet
facet normal 0.477230 0.878778 0.000000
outer loop
vertex 253.753876 121.565857 3.000000
vertex 253.753876 121.565857 0.000000
vertex 253.606689 121.645782 0.000000
endloop
endfacet
facet normal 0.477230 0.878778 0.000000
outer loop
vertex 253.753876 121.565857 3.000000
vertex 253.606689 121.645782 0.000000
vertex 253.606689 121.645782 3.000000
endloop
endfacet
facet normal 0.585452 0.810707 0.000000
outer loop
vertex 253.606689 121.645782 3.000000
vertex 253.606689 121.645782 0.000000
vertex 253.467529 121.746277 0.000000
endloop
endfacet
facet normal 0.585452 0.810707 0.000000
outer loop
vertex 253.606689 121.645782 3.000000
vertex 253.467529 121.746277 0.000000
vertex 253.467529 121.746277 3.000000
endloop
endfacet
facet normal 0.000000 1.000000 0.000000
outer loop
vertex 269.558075 121.499367 0.000000
vertex 254.084839 121.499367 0.000000
vertex 269.558075 121.499367 3.000000
endloop
endfacet
facet normal 0.000000 1.000000 0.000000
outer loop
vertex 269.558075 121.499367 3.000000
vertex 254.084839 121.499367 0.000000
vertex 254.084839 121.499367 3.000000
endloop
endfacet
facet normal -0.585677 0.810545 0.000000
outer loop
vertex 270.175385 121.746277 0.000000
vertex 270.036255 121.645782 0.000000
vertex 270.175385 121.746277 3.000000
endloop
endfacet
facet normal -0.585452 0.810707 0.000000
outer loop
vertex 270.175385 121.746277 3.000000
vertex 270.036255 121.645782 0.000000
vertex 270.036255 121.645782 3.000000
endloop
endfacet
facet normal -0.477128 0.878834 0.000000
outer loop
vertex 270.036255 121.645782 3.000000
vertex 270.036255 121.645782 0.000000
vertex 269.889038 121.565857 0.000000
endloop
endfacet
facet normal -0.477128 0.878834 0.000000
outer loop
vertex 270.036255 121.645782 3.000000
vertex 269.889038 121.565857 0.000000
vertex 269.889038 121.565857 3.000000
endloop
endfacet
facet normal -0.265454 0.964124 0.000000
outer loop
vertex 269.889038 121.565857 3.000000
vertex 269.889038 121.565857 0.000000
vertex 269.727936 121.521492 0.000000
endloop
endfacet
facet normal -0.265578 0.964089 0.000000
outer loop
vertex 269.889038 121.565857 3.000000
vertex 269.727936 121.521492 0.000000
vertex 269.727936 121.521492 3.000000
endloop
endfacet
facet normal -0.129149 0.991625 0.000000
outer loop
vertex 269.727936 121.521492 3.000000
vertex 269.727936 121.521492 0.000000
vertex 269.558075 121.499367 0.000000
endloop
endfacet
facet normal -0.129149 0.991625 0.000000
outer loop
vertex 269.727936 121.521492 3.000000
vertex 269.558075 121.499367 0.000000
vertex 269.558075 121.499367 3.000000
endloop
endfacet
facet normal -0.988103 0.153796 0.000000
outer loop
vertex 270.463470 122.322411 0.000000
vertex 270.437500 122.155884 0.000000
vertex 270.463470 122.322411 3.000000
endloop
endfacet
facet normal -0.988029 0.154268 0.000000
outer loop
vertex 270.463470 122.322411 3.000000
vertex 270.437500 122.155884 0.000000
vertex 270.437500 122.155884 3.000000
endloop
endfacet
facet normal -0.966334 0.257292 0.000000
outer loop
vertex 270.437500 122.155884 3.000000
vertex 270.437500 122.155884 0.000000
vertex 270.416412 122.076569 0.000000
endloop
endfacet
facet normal -0.966580 0.256366 0.000000
outer loop
vertex 270.437500 122.155884 3.000000
vertex 270.416412 122.076569 0.000000
vertex 270.416412 122.076569 3.000000
endloop
endfacet
facet normal -0.924061 0.382244 0.000000
outer loop
vertex 270.416412 122.076569 3.000000
vertex 270.416412 122.076569 0.000000
vertex 270.385620 122.002007 0.000000
endloop
endfacet
facet normal -0.924417 0.381382 0.000000
outer loop
vertex 270.416412 122.076569 3.000000
vertex 270.385620 122.002007 0.000000
vertex 270.385620 122.002007 3.000000
endloop
endfacet
facet normal -0.820508 0.571635 0.000000
outer loop
vertex 270.385620 122.002007 3.000000
vertex 270.385620 122.002007 0.000000
vertex 270.292450 121.868317 0.000000
endloop
endfacet
facet normal -0.820274 0.571971 0.000000
outer loop
vertex 270.385620 122.002007 3.000000
vertex 270.292450 121.868317 0.000000
vertex 270.292450 121.868317 3.000000
endloop
endfacet
facet normal -0.721781 0.692121 0.000000
outer loop
vertex 270.292450 121.868317 3.000000
vertex 270.292450 121.868317 0.000000
vertex 270.175385 121.746277 0.000000
endloop
endfacet
facet normal -0.721541 0.692372 0.000000
outer loop
vertex 270.292450 121.868317 3.000000
vertex 270.175385 121.746277 0.000000
vertex 270.175385 121.746277 3.000000
endloop
endfacet
facet normal 0.331645 0.943404 0.000000
outer loop
vertex 283.961395 163.310059 0.000000
vertex 283.661530 163.415466 0.000000
vertex 283.961395 163.310059 3.000000
endloop
endfacet
facet normal 0.331645 0.943404 0.000000
outer loop
vertex 283.961395 163.310059 3.000000
vertex 283.661530 163.415466 0.000000
vertex 283.661530 163.415466 3.000000
endloop
endfacet
facet normal 0.257988 0.966148 0.000000
outer loop
vertex 283.661530 163.415466 3.000000
vertex 283.661530 163.415466 0.000000
vertex 283.356842 163.496826 0.000000
endloop
endfacet
facet normal 0.257988 0.966148 0.000000
outer loop
vertex 283.661530 163.415466 3.000000
vertex 283.356842 163.496826 0.000000
vertex 283.356842 163.496826 3.000000
endloop
endfacet
facet normal 0.132523 0.991180 0.000000
outer loop
vertex 283.356842 163.496826 3.000000
vertex 283.356842 163.496826 0.000000
vertex 283.044189 163.538635 0.000000
endloop
endfacet
facet normal 0.132557 0.991175 0.000000
outer loop
vertex 283.356842 163.496826 3.000000
vertex 283.044189 163.538635 0.000000
vertex 283.044189 163.538635 3.000000
endloop
endfacet
facet normal 0.057692 0.998334 0.000000
outer loop
vertex 283.044189 163.538635 3.000000
vertex 283.044189 163.538635 0.000000
vertex 282.726807 163.556976 0.000000
endloop
endfacet
facet normal 0.057692 0.998334 0.000000
outer loop
vertex 283.044189 163.538635 3.000000
vertex 282.726807 163.556976 0.000000
vertex 282.726807 163.556976 3.000000
endloop
endfacet
facet normal 0.997569 0.069692 0.000000
outer loop
vertex 285.823456 160.872650 3.000000
vertex 285.854401 160.429413 3.000000
vertex 285.823456 160.872650 0.000000
endloop
endfacet
facet normal 0.997569 0.069692 0.000000
outer loop
vertex 285.823456 160.872650 0.000000
vertex 285.854401 160.429413 3.000000
vertex 285.854401 160.429413 0.000000
endloop
endfacet
facet normal 1.000000 0.000000 0.000000
outer loop
vertex 285.854401 113.351212 0.000000
vertex 285.854401 160.429413 0.000000
vertex 285.854401 113.351212 3.000000
endloop
endfacet
facet normal 1.000000 0.000000 0.000000
outer loop
vertex 285.854401 113.351212 3.000000
vertex 285.854401 160.429413 0.000000
vertex 285.854401 160.429413 3.000000
endloop
endfacet
facet normal 0.786934 -0.617038 0.000000
outer loop
vertex 284.949036 111.128998 0.000000
vertex 285.333771 111.619705 0.000000
vertex 284.949036 111.128998 3.000000
endloop
endfacet
facet normal 0.786965 -0.616997 0.000000
outer loop
vertex 284.949036 111.128998 3.000000
vertex 285.333771 111.619705 0.000000
vertex 285.333771 111.619705 3.000000
endloop
endfacet
facet normal 0.840688 -0.541519 0.000000
outer loop
vertex 285.333771 111.619705 3.000000
vertex 285.333771 111.619705 0.000000
vertex 285.498993 111.876175 0.000000
endloop
endfacet
facet normal 0.840688 -0.541519 0.000000
outer loop
vertex 285.333771 111.619705 3.000000
vertex 285.498993 111.876175 0.000000
vertex 285.498993 111.876175 3.000000
endloop
endfacet
facet normal 0.897410 -0.441198 0.000000
outer loop
vertex 285.498993 111.876175 3.000000
vertex 285.498993 111.876175 0.000000
vertex 285.631653 112.145988 0.000000
endloop
endfacet
facet normal 0.897356 -0.441307 0.000000
outer loop
vertex 285.498993 111.876175 3.000000
vertex 285.631653 112.145988 0.000000
vertex 285.631653 112.145988 3.000000
endloop
endfacet
facet normal 0.950845 -0.309668 0.000000
outer loop
vertex 285.631653 112.145988 3.000000
vertex 285.631653 112.145988 0.000000
vertex 285.724762 112.431976 0.000000
endloop
endfacet
facet normal 0.950885 -0.309546 0.000000
outer loop
vertex 285.631653 112.145988 3.000000
vertex 285.724762 112.431976 0.000000
vertex 285.724762 112.431976 3.000000
endloop
endfacet
facet normal 0.979810 -0.199931 0.000000
outer loop
vertex 285.724762 112.431976 3.000000
vertex 285.724762 112.431976 0.000000
vertex 285.785797 112.731094 0.000000
endloop
endfacet
facet normal 0.979810 -0.199931 0.000000
outer loop
vertex 285.724762 112.431976 3.000000
vertex 285.785797 112.731094 0.000000
vertex 285.785797 112.731094 3.000000
endloop
endfacet
facet normal 0.993936 -0.109959 0.000000
outer loop
vertex 285.785797 112.731094 3.000000
vertex 285.785797 112.731094 0.000000
vertex 285.854401 113.351212 0.000000
endloop
endfacet
facet normal 0.993936 -0.109959 0.000000
outer loop
vertex 285.785797 112.731094 3.000000
vertex 285.854401 113.351212 0.000000
vertex 285.854401 113.351212 3.000000
endloop
endfacet
facet normal 0.109947 -0.993937 0.000000
outer loop
vertex 282.726807 110.223648 0.000000
vertex 283.346924 110.292244 0.000000
vertex 282.726807 110.223648 3.000000
endloop
endfacet
facet normal 0.109947 -0.993937 0.000000
outer loop
vertex 282.726807 110.223648 3.000000
vertex 283.346924 110.292244 0.000000
vertex 283.346924 110.292244 3.000000
endloop
endfacet
facet normal 0.199908 -0.979815 0.000000
outer loop
vertex 283.346924 110.292244 3.000000
vertex 283.346924 110.292244 0.000000
vertex 283.646057 110.353279 0.000000
endloop
endfacet
facet normal 0.199934 -0.979809 0.000000
outer loop
vertex 283.346924 110.292244 3.000000
vertex 283.646057 110.353279 0.000000
vertex 283.646057 110.353279 3.000000
endloop
endfacet
facet normal 0.309577 -0.950874 0.000000
outer loop
vertex 283.646057 110.353279 3.000000
vertex 283.646057 110.353279 0.000000
vertex 283.932037 110.446396 0.000000
endloop
endfacet
facet normal 0.309617 -0.950861 0.000000
outer loop
vertex 283.646057 110.353279 3.000000
vertex 283.932037 110.446396 0.000000
vertex 283.932037 110.446396 3.000000
endloop
endfacet
facet normal 0.441120 -0.897448 0.000000
outer loop
vertex 283.932037 110.446396 3.000000
vertex 283.932037 110.446396 0.000000
vertex 284.201843 110.579018 0.000000
endloop
endfacet
facet normal 0.441173 -0.897422 0.000000
outer loop
vertex 283.932037 110.446396 3.000000
vertex 284.201843 110.579018 0.000000
vertex 284.201843 110.579018 3.000000
endloop
endfacet
facet normal 0.541566 -0.840658 0.000000
outer loop
vertex 284.201843 110.579018 3.000000
vertex 284.201843 110.579018 0.000000
vertex 284.458313 110.744240 0.000000
endloop
endfacet
facet normal 0.541566 -0.840658 0.000000
outer loop
vertex 284.201843 110.579018 3.000000
vertex 284.458313 110.744240 0.000000
vertex 284.458313 110.744240 3.000000
endloop
endfacet
facet normal 0.617018 -0.786949 0.000000
outer loop
vertex 284.458313 110.744240 3.000000
vertex 284.458313 110.744240 0.000000
vertex 284.949036 111.128998 0.000000
endloop
endfacet
facet normal 0.617018 -0.786949 0.000000
outer loop
vertex 284.458313 110.744240 3.000000
vertex 284.949036 111.128998 0.000000
vertex 284.949036 111.128998 3.000000
endloop
endfacet
facet normal 0.000000 -1.000000 0.000000
outer loop
vertex 238.776215 110.223648 0.000000
vertex 282.726807 110.223648 0.000000
vertex 238.776215 110.223648 3.000000
endloop
endfacet
facet normal 0.000000 -1.000000 0.000000
outer loop
vertex 238.776215 110.223648 3.000000
vertex 282.726807 110.223648 0.000000
vertex 282.726807 110.223648 3.000000
endloop
endfacet
facet normal -0.617050 -0.786924 0.000000
outer loop
vertex 236.554016 111.128998 0.000000
vertex 237.044708 110.744240 0.000000
vertex 236.554016 111.128998 3.000000
endloop
endfacet
facet normal -0.617018 -0.786949 0.000000
outer loop
vertex 236.554016 111.128998 3.000000
vertex 237.044708 110.744240 0.000000
vertex 237.044708 110.744240 3.000000
endloop
endfacet
facet normal -0.541627 -0.840619 0.000000
outer loop
vertex 237.044708 110.744240 3.000000
vertex 237.044708 110.744240 0.000000
vertex 237.301178 110.579018 0.000000
endloop
endfacet
facet normal -0.541506 -0.840697 0.000000
outer loop
vertex 237.044708 110.744240 3.000000
vertex 237.301178 110.579018 0.000000
vertex 237.301178 110.579018 3.000000
endloop
endfacet
facet normal -0.441120 -0.897448 0.000000
outer loop
vertex 237.301178 110.579018 3.000000
vertex 237.301178 110.579018 0.000000
vertex 237.571014 110.446396 0.000000
endloop
endfacet
facet normal -0.441120 -0.897448 0.000000
outer loop
vertex 237.301178 110.579018 3.000000
vertex 237.571014 110.446396 0.000000
vertex 237.571014 110.446396 3.000000
endloop
endfacet
facet normal -0.309577 -0.950874 0.000000
outer loop
vertex 237.571014 110.446396 3.000000
vertex 237.571014 110.446396 0.000000
vertex 237.856995 110.353279 0.000000
endloop
endfacet
facet normal -0.309617 -0.950861 0.000000
outer loop
vertex 237.571014 110.446396 3.000000
vertex 237.856995 110.353279 0.000000
vertex 237.856995 110.353279 3.000000
endloop
endfacet
facet normal -0.199934 -0.979809 0.000000
outer loop
vertex 237.856995 110.353279 3.000000
vertex 237.856995 110.353279 0.000000
vertex 238.156097 110.292244 0.000000
endloop
endfacet
facet normal -0.199960 -0.979804 0.000000
outer loop
vertex 237.856995 110.353279 3.000000
vertex 238.156097 110.292244 0.000000
vertex 238.156097 110.292244 3.000000
endloop
endfacet
facet normal -0.109947 -0.993937 0.000000
outer loop
vertex 238.156097 110.292244 3.000000
vertex 238.156097 110.292244 0.000000
vertex 238.776215 110.223648 0.000000
endloop
endfacet
facet normal -0.109947 -0.993937 0.000000
outer loop
vertex 238.156097 110.292244 3.000000
vertex 238.776215 110.223648 0.000000
vertex 238.776215 110.223648 3.000000
endloop
endfacet
facet normal -0.993929 -0.110024 0.000000
outer loop
vertex 235.648621 113.351212 0.000000
vertex 235.717255 112.731094 0.000000
vertex 235.648621 113.351212 3.000000
endloop
endfacet
facet normal -0.993936 -0.109959 0.000000
outer loop
vertex 235.648621 113.351212 3.000000
vertex 235.717255 112.731094 0.000000
vertex 235.717255 112.731094 3.000000
endloop
endfacet
facet normal -0.979810 -0.199931 0.000000
outer loop
vertex 235.717255 112.731094 3.000000
vertex 235.717255 112.731094 0.000000
vertex 235.778290 112.431976 0.000000
endloop
endfacet
facet normal -0.979810 -0.199931 0.000000
outer loop
vertex 235.717255 112.731094 3.000000
vertex 235.778290 112.431976 0.000000
vertex 235.778290 112.431976 3.000000
endloop
endfacet
facet normal -0.950845 -0.309668 0.000000
outer loop
vertex 235.778290 112.431976 3.000000
vertex 235.778290 112.431976 0.000000
vertex 235.871399 112.145988 0.000000
endloop
endfacet
facet normal -0.950885 -0.309546 0.000000
outer loop
vertex 235.778290 112.431976 3.000000
vertex 235.871399 112.145988 0.000000
vertex 235.871399 112.145988 3.000000
endloop
endfacet
facet normal -0.897463 -0.441089 0.000000
outer loop
vertex 235.871399 112.145988 3.000000
vertex 235.871399 112.145988 0.000000
vertex 236.004028 111.876175 0.000000
endloop
endfacet
facet normal -0.897410 -0.441198 0.000000
outer loop
vertex 235.871399 112.145988 3.000000
vertex 236.004028 111.876175 0.000000
vertex 236.004028 111.876175 3.000000
endloop
endfacet
facet normal -0.840688 -0.541519 0.000000
outer loop
vertex 236.004028 111.876175 3.000000
vertex 236.004028 111.876175 0.000000
vertex 236.169250 111.619705 0.000000
endloop
endfacet
facet normal -0.840628 -0.541613 0.000000
outer loop
vertex 236.004028 111.876175 3.000000
vertex 236.169250 111.619705 0.000000
vertex 236.169250 111.619705 3.000000
endloop
endfacet
facet normal -0.786934 -0.617038 0.000000
outer loop
vertex 236.169250 111.619705 3.000000
vertex 236.169250 111.619705 0.000000
vertex 236.554016 111.128998 0.000000
endloop
endfacet
facet normal -0.786934 -0.617038 0.000000
outer loop
vertex 236.169250 111.619705 3.000000
vertex 236.554016 111.128998 0.000000
vertex 236.554016 111.128998 3.000000
endloop
endfacet
facet normal -1.000000 0.000000 0.000000
outer loop
vertex 235.648621 160.429413 0.000000
vertex 235.648621 113.351212 0.000000
vertex 235.648621 160.429413 3.000000
endloop
endfacet
facet normal -1.000000 0.000000 0.000000
outer loop
vertex 235.648621 160.429413 3.000000
vertex 235.648621 113.351212 0.000000
vertex 235.648621 113.351212 3.000000
endloop
endfacet
facet normal -0.786943 0.617026 0.000000
outer loop
vertex 236.554016 162.651642 0.000000
vertex 236.169250 162.160919 0.000000
vertex 236.554016 162.651642 3.000000
endloop
endfacet
facet normal -0.786943 0.617026 0.000000
outer loop
vertex 236.554016 162.651642 3.000000
vertex 236.169250 162.160919 0.000000
vertex 236.169250 162.160919 3.000000
endloop
endfacet
facet normal -0.840628 0.541613 0.000000
outer loop
vertex 236.169250 162.160919 3.000000
vertex 236.169250 162.160919 0.000000
vertex 236.004028 161.904449 0.000000
endloop
endfacet
facet normal -0.840688 0.541519 0.000000
outer loop
vertex 236.169250 162.160919 3.000000
vertex 236.004028 161.904449 0.000000
vertex 236.004028 161.904449 3.000000
endloop
endfacet
facet normal -0.897405 0.441208 0.000000
outer loop
vertex 236.004028 161.904449 3.000000
vertex 236.004028 161.904449 0.000000
vertex 235.871399 161.634644 0.000000
endloop
endfacet
facet normal -0.897458 0.441099 0.000000
outer loop
vertex 236.004028 161.904449 3.000000
vertex 235.871399 161.634644 0.000000
vertex 235.871399 161.634644 3.000000
endloop
endfacet
facet normal -0.950887 0.309538 0.000000
outer loop
vertex 235.871399 161.634644 3.000000
vertex 235.871399 161.634644 0.000000
vertex 235.778290 161.348648 0.000000
endloop
endfacet
facet normal -0.950847 0.309661 0.000000
outer loop
vertex 235.871399 161.634644 3.000000
vertex 235.778290 161.348648 0.000000
vertex 235.778290 161.348648 3.000000
endloop
endfacet
facet normal -0.979810 0.199931 0.000000
outer loop
vertex 235.778290 161.348648 3.000000
vertex 235.778290 161.348648 0.000000
vertex 235.717255 161.049530 0.000000
endloop
endfacet
facet normal -0.979810 0.199931 0.000000
outer loop
vertex 235.778290 161.348648 3.000000
vertex 235.717255 161.049530 0.000000
vertex 235.717255 161.049530 3.000000
endloop
endfacet
facet normal -0.993936 0.109959 0.000000
outer loop
vertex 235.717255 161.049530 3.000000
vertex 235.717255 161.049530 0.000000
vertex 235.648621 160.429413 0.000000
endloop
endfacet
facet normal -0.993929 0.110024 0.000000
outer loop
vertex 235.717255 161.049530 3.000000
vertex 235.648621 160.429413 0.000000
vertex 235.648621 160.429413 3.000000
endloop
endfacet
facet normal -0.109959 0.993936 0.000000
outer loop
vertex 238.776215 163.556976 0.000000
vertex 238.156097 163.488373 0.000000
vertex 238.776215 163.556976 3.000000
endloop
endfacet
facet normal -0.109959 0.993936 0.000000
outer loop
vertex 238.776215 163.556976 3.000000
vertex 238.156097 163.488373 0.000000
vertex 238.156097 163.488373 3.000000
endloop
endfacet
facet normal -0.199912 0.979814 0.000000
outer loop
vertex 238.156097 163.488373 3.000000
vertex 238.156097 163.488373 0.000000
vertex 237.856995 163.427353 0.000000
endloop
endfacet
facet normal -0.199886 0.979819 0.000000
outer loop
vertex 238.156097 163.488373 3.000000
vertex 237.856995 163.427353 0.000000
vertex 237.856995 163.427353 3.000000
endloop
endfacet
facet normal -0.309640 0.950854 0.000000
outer loop
vertex 237.856995 163.427353 3.000000
vertex 237.856995 163.427353 0.000000
vertex 237.571014 163.334229 0.000000
endloop
endfacet
facet normal -0.309600 0.950867 0.000000
outer loop
vertex 237.856995 163.427353 3.000000
vertex 237.571014 163.334229 0.000000
vertex 237.571014 163.334229 3.000000
endloop
endfacet
facet normal -0.441194 0.897412 0.000000
outer loop
vertex 237.571014 163.334229 3.000000
vertex 237.571014 163.334229 0.000000
vertex 237.301208 163.201599 0.000000
endloop
endfacet
facet normal -0.441140 0.897438 0.000000
outer loop
vertex 237.571014 163.334229 3.000000
vertex 237.301208 163.201599 0.000000
vertex 237.301208 163.201599 3.000000
endloop
endfacet
facet normal -0.541470 0.840720 0.000000
outer loop
vertex 237.301208 163.201599 3.000000
vertex 237.301208 163.201599 0.000000
vertex 237.044708 163.036392 0.000000
endloop
endfacet
facet normal -0.541531 0.840681 0.000000
outer loop
vertex 237.301208 163.201599 3.000000
vertex 237.044708 163.036392 0.000000
vertex 237.044708 163.036392 3.000000
endloop
endfacet
facet normal -0.617011 0.786955 0.000000
outer loop
vertex 237.044708 163.036392 3.000000
vertex 237.044708 163.036392 0.000000
vertex 236.554016 162.651642 0.000000
endloop
endfacet
facet normal -0.617042 0.786930 0.000000
outer loop
vertex 237.044708 163.036392 3.000000
vertex 236.554016 162.651642 0.000000
vertex 236.554016 162.651642 3.000000
endloop
endfacet
facet normal 0.000000 1.000000 0.000000
outer loop
vertex 282.726807 163.556976 0.000000
vertex 238.776215 163.556976 0.000000
vertex 282.726807 163.556976 3.000000
endloop
endfacet
facet normal 0.000000 1.000000 0.000000
outer loop
vertex 282.726807 163.556976 3.000000
vertex 238.776215 163.556976 0.000000
vertex 238.776215 163.556976 3.000000
endloop
endfacet
facet normal 0.000000 0.000000 1.000000
outer loop
vertex 238.776215 163.556976 3.000000
vertex 257.399902 152.343079 3.000000
vertex 282.726807 163.556976 3.000000
endloop
endfacet
facet normal 0.000000 0.000000 1.000000
outer loop
vertex 282.726807 163.556976 3.000000
vertex 257.399902 152.343079 3.000000
vertex 257.575104 152.294937 3.000000
endloop
endfacet
facet normal 0.000000 0.000000 1.000000
outer loop
vertex 282.726807 163.556976 3.000000
vertex 257.575104 152.294937 3.000000
vertex 257.729401 152.199707 3.000000
endloop
endfacet
facet normal 0.000000 0.000000 1.000000
outer loop
vertex 238.156097 163.488373 3.000000
vertex 235.648621 160.429413 3.000000
vertex 238.776215 163.556976 3.000000
endloop
endfacet
facet normal 0.000000 0.000000 1.000000
outer loop
vertex 238.776215 163.556976 3.000000
vertex 235.648621 160.429413 3.000000
vertex 253.207062 151.632629 3.000000
endloop
endfacet
facet normal 0.000000 0.000000 1.000000
outer loop
vertex 238.776215 163.556976 3.000000
vertex 253.207062 151.632629 3.000000
vertex 253.259979 151.795563 3.000000
endloop
endfacet
facet normal 0.000000 0.000000 1.000000
outer loop
vertex 237.856995 163.427353 3.000000
vertex 237.044708 163.036392 3.000000
vertex 238.156097 163.488373 3.000000
endloop
endfacet
facet normal 0.000000 0.000000 1.000000
outer loop
vertex 238.156097 163.488373 3.000000
vertex 237.044708 163.036392 3.000000
vertex 235.717255 161.049530 3.000000
endloop
endfacet
facet normal 0.000000 0.000000 1.000000
outer loop
vertex 238.156097 163.488373 3.000000
vertex 235.717255 161.049530 3.000000
vertex 235.648621 160.429413 3.000000
endloop
endfacet
facet normal 0.000000 0.000000 1.000000
outer loop
vertex 237.571014 163.334229 3.000000
vertex 237.301208 163.201599 3.000000
vertex 237.856995 163.427353 3.000000
endloop
endfacet
facet normal 0.000000 0.000000 1.000000
outer loop
vertex 237.856995 163.427353 3.000000
vertex 237.301208 163.201599 3.000000
vertex 237.044708 163.036392 3.000000
endloop
endfacet
facet normal 0.000000 0.000000 1.000000
outer loop
vertex 237.044708 163.036392 3.000000
vertex 236.554016 162.651642 3.000000
vertex 235.717255 161.049530 3.000000
endloop
endfacet
facet normal 0.000000 0.000000 1.000000
outer loop
vertex 235.717255 161.049530 3.000000
vertex 236.554016 162.651642 3.000000
vertex 236.169250 162.160919 3.000000
endloop
endfacet
facet normal 0.000000 0.000000 1.000000
outer loop
vertex 235.717255 161.049530 3.000000
vertex 236.169250 162.160919 3.000000
vertex 235.778290 161.348648 3.000000
endloop
endfacet
facet normal 0.000000 0.000000 1.000000
outer loop
vertex 235.778290 161.348648 3.000000
vertex 236.169250 162.160919 3.000000
vertex 236.004028 161.904449 3.000000
endloop
endfacet
facet normal 0.000000 0.000000 1.000000
outer loop
vertex 235.778290 161.348648 3.000000
vertex 236.004028 161.904449 3.000000
vertex 235.871399 161.634644 3.000000
endloop
endfacet
facet normal 0.000000 0.000000 1.000000
outer loop
vertex 253.207062 151.632629 3.000000
vertex 235.648621 160.429413 3.000000
vertex 253.179535 151.458221 3.000000
endloop
endfacet
facet normal 0.000000 0.000000 1.000000
outer loop
vertex 253.179535 151.458221 3.000000
vertex 235.648621 160.429413 3.000000
vertex 235.648621 113.351212 3.000000
endloop
endfacet
facet normal 0.000000 0.000000 1.000000
outer loop
vertex 253.179535 151.458221 3.000000
vertex 235.648621 113.351212 3.000000
vertex 253.179535 122.322411 3.000000
endloop
endfacet
facet normal 0.000000 0.000000 1.000000
outer loop
vertex 253.179535 122.322411 3.000000
vertex 235.648621 113.351212 3.000000
vertex 253.205475 122.155891 3.000000
endloop
endfacet
facet normal 0.000000 0.000000 1.000000
outer loop
vertex 253.205475 122.155891 3.000000
vertex 235.648621 113.351212 3.000000
vertex 253.226562 122.076584 3.000000
endloop
endfacet
facet normal 0.000000 0.000000 1.000000
outer loop
vertex 253.226562 122.076584 3.000000
vertex 235.648621 113.351212 3.000000
vertex 238.776215 110.223648 3.000000
endloop
endfacet
facet normal 0.000000 0.000000 1.000000
outer loop
vertex 253.226562 122.076584 3.000000
vertex 238.776215 110.223648 3.000000
vertex 253.257324 122.002014 3.000000
endloop
endfacet
facet normal 0.000000 0.000000 1.000000
outer loop
vertex 253.257324 122.002014 3.000000
vertex 238.776215 110.223648 3.000000
vertex 253.350494 121.868317 3.000000
endloop
endfacet
facet normal 0.000000 0.000000 1.000000
outer loop
vertex 253.350494 121.868317 3.000000
vertex 238.776215 110.223648 3.000000
vertex 253.467529 121.746277 3.000000
endloop
endfacet
facet normal 0.000000 0.000000 1.000000
outer loop
vertex 253.467529 121.746277 3.000000
vertex 238.776215 110.223648 3.000000
vertex 253.606689 121.645782 3.000000
endloop
endfacet
facet normal 0.000000 0.000000 1.000000
outer loop
vertex 253.606689 121.645782 3.000000
vertex 238.776215 110.223648 3.000000
vertex 253.753876 121.565857 3.000000
endloop
endfacet
facet normal 0.000000 0.000000 1.000000
outer loop
vertex 253.753876 121.565857 3.000000
vertex 238.776215 110.223648 3.000000
vertex 253.915009 121.521492 3.000000
endloop
endfacet
facet normal 0.000000 0.000000 1.000000
outer loop
vertex 253.915009 121.521492 3.000000
vertex 238.776215 110.223648 3.000000
vertex 254.084839 121.499367 3.000000
endloop
endfacet
facet normal 0.000000 0.000000 1.000000
outer loop
vertex 254.084839 121.499367 3.000000
vertex 238.776215 110.223648 3.000000
vertex 282.726807 110.223648 3.000000
endloop
endfacet
facet normal 0.000000 0.000000 1.000000
outer loop
vertex 254.084839 121.499367 3.000000
vertex 282.726807 110.223648 3.000000
vertex 269.558075 121.499367 3.000000
endloop
endfacet
facet normal 0.000000 0.000000 1.000000
outer loop
vertex 269.558075 121.499367 3.000000
vertex 282.726807 110.223648 3.000000
vertex 269.727936 121.521492 3.000000
endloop
endfacet
facet normal 0.000000 0.000000 1.000000
outer loop
vertex 269.727936 121.521492 3.000000
vertex 282.726807 110.223648 3.000000
vertex 269.889038 121.565857 3.000000
endloop
endfacet
facet normal 0.000000 0.000000 1.000000
outer loop
vertex 269.889038 121.565857 3.000000
vertex 282.726807 110.223648 3.000000
vertex 270.036255 121.645782 3.000000
endloop
endfacet
facet normal 0.000000 0.000000 1.000000
outer loop
vertex 270.036255 121.645782 3.000000
vertex 282.726807 110.223648 3.000000
vertex 270.175385 121.746277 3.000000
endloop
endfacet
facet normal 0.000000 0.000000 1.000000
outer loop
vertex 270.175385 121.746277 3.000000
vertex 282.726807 110.223648 3.000000
vertex 270.292450 121.868317 3.000000
endloop
endfacet
facet normal 0.000000 0.000000 1.000000
outer loop
vertex 270.292450 121.868317 3.000000
vertex 282.726807 110.223648 3.000000
vertex 270.385620 122.002007 3.000000
endloop
endfacet
facet normal 0.000000 0.000000 1.000000
outer loop
vertex 270.385620 122.002007 3.000000
vertex 282.726807 110.223648 3.000000
vertex 270.416412 122.076569 3.000000
endloop
endfacet
facet normal 0.000000 0.000000 1.000000
outer loop
vertex 270.416412 122.076569 3.000000
vertex 282.726807 110.223648 3.000000
vertex 285.854401 113.351212 3.000000
endloop
endfacet
facet normal 0.000000 0.000000 1.000000
outer loop
vertex 270.416412 122.076569 3.000000
vertex 285.854401 113.351212 3.000000
vertex 270.437500 122.155884 3.000000
endloop
endfacet
facet normal 0.000000 0.000000 1.000000
outer loop
vertex 270.437500 122.155884 3.000000
vertex 285.854401 113.351212 3.000000
vertex 270.463470 122.322411 3.000000
endloop
endfacet
facet normal 0.000000 0.000000 1.000000
outer loop
vertex 270.463470 122.322411 3.000000
vertex 285.854401 113.351212 3.000000
vertex 270.463470 125.614594 3.000000
endloop
endfacet
facet normal 0.000000 0.000000 1.000000
outer loop
vertex 270.463470 125.614594 3.000000
vertex 285.854401 113.351212 3.000000
vertex 270.442963 125.802078 3.000000
endloop
endfacet
facet normal 0.000000 0.000000 1.000000
outer loop
vertex 270.442963 125.802078 3.000000
vertex 285.854401 113.351212 3.000000
vertex 270.394836 125.977287 3.000000
endloop
endfacet
facet normal 0.000000 0.000000 1.000000
outer loop
vertex 270.394836 125.977287 3.000000
vertex 285.854401 113.351212 3.000000
vertex 285.854401 160.429413 3.000000
endloop
endfacet
facet normal 0.000000 0.000000 1.000000
outer loop
vertex 270.394836 125.977287 3.000000
vertex 285.854401 160.429413 3.000000
vertex 270.299591 126.131584 3.000000
endloop
endfacet
facet normal 0.000000 0.000000 1.000000
outer loop
vertex 270.299591 126.131584 3.000000
vertex 285.854401 160.429413 3.000000
vertex 270.175385 126.273026 3.000000
endloop
endfacet
facet normal 0.000000 0.000000 1.000000
outer loop
vertex 270.175385 126.273026 3.000000
vertex 285.854401 160.429413 3.000000
vertex 270.036255 126.373528 3.000000
endloop
endfacet
facet normal 0.000000 0.000000 1.000000
outer loop
vertex 270.036255 126.373528 3.000000
vertex 285.854401 160.429413 3.000000
vertex 269.889038 126.453445 3.000000
endloop
endfacet
facet normal 0.000000 0.000000 1.000000
outer loop
vertex 269.889038 126.453445 3.000000
vertex 285.854401 160.429413 3.000000
vertex 258.117737 151.458221 3.000000
endloop
endfacet
facet normal 0.000000 0.000000 1.000000
outer loop
vertex 269.889038 126.453445 3.000000
vertex 258.117737 151.458221 3.000000
vertex 269.727905 126.497818 3.000000
endloop
endfacet
facet normal 0.000000 0.000000 1.000000
outer loop
vertex 269.727905 126.497818 3.000000
vertex 258.117737 151.458221 3.000000
vertex 269.558075 126.519943 3.000000
endloop
endfacet
facet normal 0.000000 0.000000 1.000000
outer loop
vertex 269.558075 126.519943 3.000000
vertex 258.117737 151.458221 3.000000
vertex 258.117737 127.342987 3.000000
endloop
endfacet
facet normal 0.000000 0.000000 1.000000
outer loop
vertex 269.558075 126.519943 3.000000
vertex 258.117737 127.342987 3.000000
vertex 258.940796 126.519943 3.000000
endloop
endfacet
facet normal 0.000000 0.000000 1.000000
outer loop
vertex 258.940796 126.519943 3.000000
vertex 258.117737 127.342987 3.000000
vertex 258.779266 126.540436 3.000000
endloop
endfacet
facet normal 0.000000 0.000000 1.000000
outer loop
vertex 258.779266 126.540436 3.000000
vertex 258.117737 127.342987 3.000000
vertex 258.627411 126.583702 3.000000
endloop
endfacet
facet normal 0.000000 0.000000 1.000000
outer loop
vertex 258.627411 126.583702 3.000000
vertex 258.117737 127.342987 3.000000
vertex 258.491364 126.664268 3.000000
endloop
endfacet
facet normal 0.000000 0.000000 1.000000
outer loop
vertex 258.491364 126.664268 3.000000
vertex 258.117737 127.342987 3.000000
vertex 258.364685 126.766861 3.000000
endloop
endfacet
facet normal 0.000000 0.000000 1.000000
outer loop
vertex 258.364685 126.766861 3.000000
vertex 258.117737 127.342987 3.000000
vertex 258.262085 126.893539 3.000000
endloop
endfacet
facet normal 0.000000 0.000000 1.000000
outer loop
vertex 258.262085 126.893539 3.000000
vertex 258.117737 127.342987 3.000000
vertex 258.138245 127.181442 3.000000
endloop
endfacet
facet normal 0.000000 0.000000 1.000000
outer loop
vertex 258.262085 126.893539 3.000000
vertex 258.138245 127.181442 3.000000
vertex 258.181519 127.029572 3.000000
endloop
endfacet
facet normal 0.000000 0.000000 1.000000
outer loop
vertex 235.717255 112.731094 3.000000
vertex 236.169250 111.619705 3.000000
vertex 235.648621 113.351212 3.000000
endloop
endfacet
facet normal 0.000000 0.000000 1.000000
outer loop
vertex 235.648621 113.351212 3.000000
vertex 236.169250 111.619705 3.000000
vertex 236.554016 111.128998 3.000000
endloop
endfacet
facet normal 0.000000 0.000000 1.000000
outer loop
vertex 235.648621 113.351212 3.000000
vertex 236.554016 111.128998 3.000000
vertex 237.044708 110.744240 3.000000
endloop
endfacet
facet normal 0.000000 0.000000 1.000000
outer loop
vertex 235.717255 112.731094 3.000000
vertex 235.778290 112.431976 3.000000
vertex 236.169250 111.619705 3.000000
endloop
endfacet
facet normal 0.000000 0.000000 1.000000
outer loop
vertex 236.169250 111.619705 3.000000
vertex 235.778290 112.431976 3.000000
vertex 236.004028 111.876175 3.000000
endloop
endfacet
facet normal 0.000000 0.000000 1.000000
outer loop
vertex 236.004028 111.876175 3.000000
vertex 235.778290 112.431976 3.000000
vertex 235.871399 112.145988 3.000000
endloop
endfacet
facet normal 0.000000 0.000000 1.000000
outer loop
vertex 237.044708 110.744240 3.000000
vertex 237.301178 110.579018 3.000000
vertex 235.648621 113.351212 3.000000
endloop
endfacet
facet normal 0.000000 0.000000 1.000000
outer loop
vertex 235.648621 113.351212 3.000000
vertex 237.301178 110.579018 3.000000
vertex 237.571014 110.446396 3.000000
endloop
endfacet
facet normal 0.000000 0.000000 1.000000
outer loop
vertex 235.648621 113.351212 3.000000
vertex 237.571014 110.446396 3.000000
vertex 237.856995 110.353279 3.000000
endloop
endfacet
facet normal 0.000000 0.000000 1.000000
outer loop
vertex 237.856995 110.353279 3.000000
vertex 238.156097 110.292244 3.000000
vertex 235.648621 113.351212 3.000000
endloop
endfacet
facet normal 0.000000 0.000000 1.000000
outer loop
vertex 235.648621 113.351212 3.000000
vertex 238.156097 110.292244 3.000000
vertex 238.776215 110.223648 3.000000
endloop
endfacet
facet normal 0.000000 0.000000 1.000000
outer loop
vertex 282.726807 110.223648 3.000000
vertex 283.346924 110.292244 3.000000
vertex 285.854401 113.351212 3.000000
endloop
endfacet
facet normal 0.000000 0.000000 1.000000
outer loop
vertex 285.854401 113.351212 3.000000
vertex 283.346924 110.292244 3.000000
vertex 283.646057 110.353279 3.000000
endloop
endfacet
facet normal 0.000000 0.000000 1.000000
outer loop
vertex 285.854401 113.351212 3.000000
vertex 283.646057 110.353279 3.000000
vertex 283.932037 110.446396 3.000000
endloop
endfacet
facet normal 0.000000 0.000000 1.000000
outer loop
vertex 283.932037 110.446396 3.000000
vertex 284.201843 110.579018 3.000000
vertex 285.854401 113.351212 3.000000
endloop
endfacet
facet normal 0.000000 0.000000 1.000000
outer loop
vertex 285.854401 113.351212 3.000000
vertex 284.201843 110.579018 3.000000
vertex 284.458313 110.744240 3.000000
endloop
endfacet
facet normal 0.000000 0.000000 1.000000
outer loop
vertex 285.854401 113.351212 3.000000
vertex 284.458313 110.744240 3.000000
vertex 284.949036 111.128998 3.000000
endloop
endfacet
facet normal 0.000000 0.000000 1.000000
outer loop
vertex 284.949036 111.128998 3.000000
vertex 285.333771 111.619705 3.000000
vertex 285.854401 113.351212 3.000000
endloop
endfacet
facet normal 0.000000 0.000000 1.000000
outer loop
vertex 285.854401 113.351212 3.000000
vertex 285.333771 111.619705 3.000000
vertex 285.785797 112.731094 3.000000
endloop
endfacet
facet normal 0.000000 0.000000 1.000000
outer loop
vertex 285.785797 112.731094 3.000000
vertex 285.333771 111.619705 3.000000
vertex 285.724762 112.431976 3.000000
endloop
endfacet
facet normal 0.000000 0.000000 1.000000
outer loop
vertex 285.724762 112.431976 3.000000
vertex 285.333771 111.619705 3.000000
vertex 285.498993 111.876175 3.000000
endloop
endfacet
facet normal 0.000000 0.000000 1.000000
outer loop
vertex 285.724762 112.431976 3.000000
vertex 285.498993 111.876175 3.000000
vertex 285.631653 112.145988 3.000000
endloop
endfacet
facet normal 0.000000 0.000000 1.000000
outer loop
vertex 258.117737 151.458221 3.000000
vertex 285.854401 160.429413 3.000000
vertex 282.726807 163.556976 3.000000
endloop
endfacet
facet normal 0.000000 0.000000 1.000000
outer loop
vertex 282.726807 163.556976 3.000000
vertex 285.854401 160.429413 3.000000
vertex 285.823456 160.872650 3.000000
endloop
endfacet
facet normal 0.000000 0.000000 1.000000
outer loop
vertex 282.726807 163.556976 3.000000
vertex 285.823456 160.872650 3.000000
vertex 285.777008 161.175766 3.000000
endloop
endfacet
facet normal 0.000000 0.000000 1.000000
outer loop
vertex 285.777008 161.175766 3.000000
vertex 285.693451 161.469208 3.000000
vertex 282.726807 163.556976 3.000000
endloop
endfacet
facet normal 0.000000 0.000000 1.000000
outer loop
vertex 282.726807 163.556976 3.000000
vertex 285.693451 161.469208 3.000000
vertex 285.576569 161.753967 3.000000
endloop
endfacet
facet normal 0.000000 0.000000 1.000000
outer loop
vertex 282.726807 163.556976 3.000000
vertex 285.576569 161.753967 3.000000
vertex 285.275269 162.274231 3.000000
endloop
endfacet
facet normal 0.000000 0.000000 1.000000
outer loop
vertex 285.275269 162.274231 3.000000
vertex 285.576569 161.753967 3.000000
vertex 285.442871 162.034348 3.000000
endloop
endfacet
facet normal 0.000000 0.000000 1.000000
outer loop
vertex 282.726807 163.556976 3.000000
vertex 285.275269 162.274231 3.000000
vertex 284.672943 162.891006 3.000000
endloop
endfacet
facet normal 0.000000 0.000000 1.000000
outer loop
vertex 284.672943 162.891006 3.000000
vertex 285.275269 162.274231 3.000000
vertex 285.097046 162.503143 3.000000
endloop
endfacet
facet normal 0.000000 0.000000 1.000000
outer loop
vertex 284.672943 162.891006 3.000000
vertex 285.097046 162.503143 3.000000
vertex 284.897614 162.710114 3.000000
endloop
endfacet
facet normal 0.000000 0.000000 1.000000
outer loop
vertex 284.672943 162.891006 3.000000
vertex 284.507568 163.014450 3.000000
vertex 282.726807 163.556976 3.000000
endloop
endfacet
facet normal 0.000000 0.000000 1.000000
outer loop
vertex 282.726807 163.556976 3.000000
vertex 284.507568 163.014450 3.000000
vertex 284.332031 163.122742 3.000000
endloop
endfacet
facet normal 0.000000 0.000000 1.000000
outer loop
vertex 282.726807 163.556976 3.000000
vertex 284.332031 163.122742 3.000000
vertex 284.148682 163.219330 3.000000
endloop
endfacet
facet normal 0.000000 0.000000 1.000000
outer loop
vertex 283.961395 163.310059 3.000000
vertex 283.661530 163.415466 3.000000
vertex 284.148682 163.219330 3.000000
endloop
endfacet
facet normal 0.000000 0.000000 1.000000
outer loop
vertex 284.148682 163.219330 3.000000
vertex 283.661530 163.415466 3.000000
vertex 283.044189 163.538635 3.000000
endloop
endfacet
facet normal 0.000000 0.000000 1.000000
outer loop
vertex 284.148682 163.219330 3.000000
vertex 283.044189 163.538635 3.000000
vertex 282.726807 163.556976 3.000000
endloop
endfacet
facet normal 0.000000 0.000000 1.000000
outer loop
vertex 283.661530 163.415466 3.000000
vertex 283.356842 163.496826 3.000000
vertex 283.044189 163.538635 3.000000
endloop
endfacet
facet normal 0.000000 0.000000 1.000000
outer loop
vertex 253.259979 151.795563 3.000000
vertex 253.352509 151.940628 3.000000
vertex 238.776215 163.556976 3.000000
endloop
endfacet
facet normal 0.000000 0.000000 1.000000
outer loop
vertex 238.776215 163.556976 3.000000
vertex 253.352509 151.940628 3.000000
vertex 253.467529 152.075500 3.000000
endloop
endfacet
facet normal 0.000000 0.000000 1.000000
outer loop
vertex 238.776215 163.556976 3.000000
vertex 253.467529 152.075500 3.000000
vertex 253.602417 152.190552 3.000000
endloop
endfacet
facet normal 0.000000 0.000000 1.000000
outer loop
vertex 253.602417 152.190552 3.000000
vertex 253.747467 152.283081 3.000000
vertex 238.776215 163.556976 3.000000
endloop
endfacet
facet normal 0.000000 0.000000 1.000000
outer loop
vertex 238.776215 163.556976 3.000000
vertex 253.747467 152.283081 3.000000
vertex 253.910431 152.336014 3.000000
endloop
endfacet
facet normal 0.000000 0.000000 1.000000
outer loop
vertex 238.776215 163.556976 3.000000
vertex 253.910431 152.336014 3.000000
vertex 254.084839 152.363556 3.000000
endloop
endfacet
facet normal 0.000000 0.000000 1.000000
outer loop
vertex 254.084839 152.363556 3.000000
vertex 257.212433 152.363556 3.000000
vertex 238.776215 163.556976 3.000000
endloop
endfacet
facet normal 0.000000 0.000000 1.000000
outer loop
vertex 238.776215 163.556976 3.000000
vertex 257.212433 152.363556 3.000000
vertex 257.399902 152.343079 3.000000
endloop
endfacet
facet normal 0.000000 0.000000 1.000000
outer loop
vertex 257.729401 152.199707 3.000000
vertex 257.870850 152.075500 3.000000
vertex 282.726807 163.556976 3.000000
endloop
endfacet
facet normal 0.000000 0.000000 1.000000
outer loop
vertex 282.726807 163.556976 3.000000
vertex 257.870850 152.075500 3.000000
vertex 257.971344 151.936371 3.000000
endloop
endfacet
facet normal 0.000000 0.000000 1.000000
outer loop
vertex 282.726807 163.556976 3.000000
vertex 257.971344 151.936371 3.000000
vertex 258.051239 151.789169 3.000000
endloop
endfacet
facet normal 0.000000 0.000000 1.000000
outer loop
vertex 258.051239 151.789169 3.000000
vertex 258.095612 151.628052 3.000000
vertex 282.726807 163.556976 3.000000
endloop
endfacet
facet normal 0.000000 0.000000 1.000000
outer loop
vertex 282.726807 163.556976 3.000000
vertex 258.095612 151.628052 3.000000
vertex 258.117737 151.458221 3.000000
endloop
endfacet
endsolid 2022_05_29_Scrabble v3.020
